<mxfile host="app.diagrams.net" modified="2021-06-13T18:08:08.139Z" agent="5.0 (Windows NT 10.0; Win64; x64) AppleWebKit/537.36 (KHTML, like Gecko) Chrome/91.0.4472.101 Safari/537.36" etag="rXwXsSmcDc57TlcTvBFU" version="14.7.7" type="github">
  <diagram id="yBcl37-oRLom6nPR3LxB" name="Page-1">
    <mxGraphModel dx="782" dy="436" grid="1" gridSize="10" guides="1" tooltips="1" connect="1" arrows="1" fold="1" page="1" pageScale="1" pageWidth="850" pageHeight="1100" math="0" shadow="0">
      <root>
        <mxCell id="0" />
        <mxCell id="1" parent="0" />
        <mxCell id="5hVMAslA77jhPk-0_akh-24" value="" style="group;fontStyle=1" vertex="1" connectable="0" parent="1">
          <mxGeometry x="50" y="60" width="660" height="190" as="geometry" />
        </mxCell>
        <mxCell id="5hVMAslA77jhPk-0_akh-9" value="" style="edgeStyle=orthogonalEdgeStyle;rounded=0;orthogonalLoop=1;jettySize=auto;html=1;" edge="1" parent="5hVMAslA77jhPk-0_akh-24">
          <mxGeometry relative="1" as="geometry">
            <mxPoint x="320" y="90" as="sourcePoint" />
            <mxPoint x="320" y="50" as="targetPoint" />
          </mxGeometry>
        </mxCell>
        <mxCell id="5hVMAslA77jhPk-0_akh-1" value="PlatformTransactionManaget&amp;lt;I&amp;gt;" style="rounded=0;whiteSpace=wrap;html=1;fillColor=#dae8fc;strokeColor=#6c8ebf;fontStyle=1" vertex="1" parent="5hVMAslA77jhPk-0_akh-24">
          <mxGeometry x="230" width="190" height="50" as="geometry" />
        </mxCell>
        <mxCell id="5hVMAslA77jhPk-0_akh-2" style="edgeStyle=orthogonalEdgeStyle;rounded=0;orthogonalLoop=1;jettySize=auto;html=1;exitX=0.5;exitY=1;exitDx=0;exitDy=0;" edge="1" parent="5hVMAslA77jhPk-0_akh-24" source="5hVMAslA77jhPk-0_akh-1" target="5hVMAslA77jhPk-0_akh-1">
          <mxGeometry relative="1" as="geometry" />
        </mxCell>
        <mxCell id="5hVMAslA77jhPk-0_akh-4" style="edgeStyle=orthogonalEdgeStyle;rounded=0;orthogonalLoop=1;jettySize=auto;html=1;exitX=0.5;exitY=1;exitDx=0;exitDy=0;" edge="1" parent="5hVMAslA77jhPk-0_akh-24" source="5hVMAslA77jhPk-0_akh-1" target="5hVMAslA77jhPk-0_akh-1">
          <mxGeometry relative="1" as="geometry" />
        </mxCell>
        <mxCell id="5hVMAslA77jhPk-0_akh-12" value="" style="edgeStyle=orthogonalEdgeStyle;rounded=0;orthogonalLoop=1;jettySize=auto;html=1;" edge="1" parent="5hVMAslA77jhPk-0_akh-24" source="5hVMAslA77jhPk-0_akh-6">
          <mxGeometry relative="1" as="geometry">
            <mxPoint x="90" y="90" as="targetPoint" />
            <Array as="points">
              <mxPoint x="90" y="90" />
            </Array>
          </mxGeometry>
        </mxCell>
        <mxCell id="5hVMAslA77jhPk-0_akh-6" value="DataSourceTransactionManager" style="rounded=0;whiteSpace=wrap;html=1;fillColor=#ffe6cc;strokeColor=#d79b00;fontStyle=1" vertex="1" parent="5hVMAslA77jhPk-0_akh-24">
          <mxGeometry y="110" width="190" height="50" as="geometry" />
        </mxCell>
        <mxCell id="5hVMAslA77jhPk-0_akh-7" value="HibernateTransactionManager" style="rounded=0;whiteSpace=wrap;html=1;fillColor=#ffe6cc;strokeColor=#d79b00;fontStyle=1" vertex="1" parent="5hVMAslA77jhPk-0_akh-24">
          <mxGeometry x="230" y="110" width="180" height="50" as="geometry" />
        </mxCell>
        <mxCell id="5hVMAslA77jhPk-0_akh-8" value="JpaTransactionManager" style="rounded=0;whiteSpace=wrap;html=1;fillColor=#ffe6cc;strokeColor=#d79b00;fontStyle=1" vertex="1" parent="5hVMAslA77jhPk-0_akh-24">
          <mxGeometry x="480" y="110" width="180" height="50" as="geometry" />
        </mxCell>
        <mxCell id="5hVMAslA77jhPk-0_akh-10" value="" style="endArrow=none;html=1;" edge="1" parent="5hVMAslA77jhPk-0_akh-24">
          <mxGeometry width="50" height="50" relative="1" as="geometry">
            <mxPoint x="90" y="90" as="sourcePoint" />
            <mxPoint x="590" y="90" as="targetPoint" />
          </mxGeometry>
        </mxCell>
        <mxCell id="5hVMAslA77jhPk-0_akh-14" value="" style="endArrow=classic;html=1;" edge="1" parent="5hVMAslA77jhPk-0_akh-24">
          <mxGeometry width="50" height="50" relative="1" as="geometry">
            <mxPoint x="320" y="110" as="sourcePoint" />
            <mxPoint x="320" y="90" as="targetPoint" />
          </mxGeometry>
        </mxCell>
        <mxCell id="5hVMAslA77jhPk-0_akh-16" value="" style="endArrow=classic;html=1;" edge="1" parent="5hVMAslA77jhPk-0_akh-24">
          <mxGeometry width="50" height="50" relative="1" as="geometry">
            <mxPoint x="590" y="100" as="sourcePoint" />
            <mxPoint x="590" y="90" as="targetPoint" />
            <Array as="points">
              <mxPoint x="590" y="110" />
              <mxPoint x="590" y="100" />
            </Array>
          </mxGeometry>
        </mxCell>
        <mxCell id="5hVMAslA77jhPk-0_akh-17" value="- When working with JDBC&lt;br style=&quot;font-size: 10px&quot;&gt;- DataSource object required" style="text;html=1;strokeColor=none;fillColor=none;align=left;verticalAlign=middle;whiteSpace=wrap;rounded=0;fontSize=10;" vertex="1" parent="5hVMAslA77jhPk-0_akh-24">
          <mxGeometry y="160" width="170" height="30" as="geometry" />
        </mxCell>
        <mxCell id="5hVMAslA77jhPk-0_akh-20" value="- When working with JDBC&lt;br style=&quot;font-size: 10px&quot;&gt;- DataSource object required" style="text;html=1;strokeColor=none;fillColor=none;align=left;verticalAlign=middle;whiteSpace=wrap;rounded=0;fontSize=10;" vertex="1" parent="5hVMAslA77jhPk-0_akh-24">
          <mxGeometry y="160" width="170" height="30" as="geometry" />
        </mxCell>
        <mxCell id="5hVMAslA77jhPk-0_akh-21" value="- When working with pure Hibernate&lt;br style=&quot;font-size: 10px&quot;&gt;- SessionFactory object required" style="text;html=1;strokeColor=none;fillColor=none;align=left;verticalAlign=middle;whiteSpace=wrap;rounded=0;fontSize=10;" vertex="1" parent="5hVMAslA77jhPk-0_akh-24">
          <mxGeometry x="235" y="160" width="170" height="30" as="geometry" />
        </mxCell>
        <mxCell id="5hVMAslA77jhPk-0_akh-22" value="- When working with spring data JPA&amp;nbsp; &amp;nbsp; &amp;nbsp;or Hibernate with JPA.&lt;br style=&quot;font-size: 10px&quot;&gt;&amp;nbsp;- Entity object required" style="text;html=1;strokeColor=none;fillColor=none;align=left;verticalAlign=middle;whiteSpace=wrap;rounded=0;fontSize=10;" vertex="1" parent="5hVMAslA77jhPk-0_akh-24">
          <mxGeometry x="480" y="170" width="170" height="20" as="geometry" />
        </mxCell>
        <mxCell id="5hVMAslA77jhPk-0_akh-26" value="&amp;nbsp; &amp;nbsp; &amp;nbsp;@Transaction Properties" style="rounded=0;whiteSpace=wrap;html=1;fontSize=10;align=center;fontStyle=1;fillColor=#f8cecc;strokeColor=#b85450;" vertex="1" parent="1">
          <mxGeometry x="40" y="340" width="740" height="30" as="geometry" />
        </mxCell>
        <mxCell id="5hVMAslA77jhPk-0_akh-27" value="Propogation" style="rounded=0;whiteSpace=wrap;html=1;fontSize=10;align=center;fillColor=#ffe6cc;strokeColor=#d79b00;fontStyle=1" vertex="1" parent="1">
          <mxGeometry x="30" y="400" width="120" height="30" as="geometry" />
        </mxCell>
      </root>
    </mxGraphModel>
  </diagram>
</mxfile>
